<svg width="368" height="368" viewBox="0 0 368 368" fill="none" xmlns="http://www.w3.org/2000/svg">
<circle cx="184" cy="184" r="184" fill="#A25E2E"/>
<path d="M168.402 107.004C141.614 80.4505 133.403 63.5975 137.929 28C164.724 65.1861 174.941 84.8599 172.593 107.004C181.524 123.895 182.634 135.555 174.015 162.307C170.896 194.849 173.774 213.138 186.461 235.668C185.182 212.522 193.88 184.728 215.805 125.062C222.857 165.84 216.972 190.846 189.846 239.054C202.261 259.369 213.408 270.295 214.676 288.714C245.149 236.797 214.676 215.353 224.834 186.008C234.239 159.807 242.949 150.514 264.336 147.635C250.861 165.344 251.011 189.497 254.178 237.925C254.178 259.369 215.805 286.456 212.419 300L211.29 296.614C210.78 295.328 209.503 294.585 205.647 293.228C183.965 303.234 169.271 296.284 142.444 280.813C179.689 269.527 194.05 270.526 209.033 286.456C213.946 284.983 201.057 266.798 175.174 231.154C144.348 222.73 135.075 203.444 121 164.564C137.929 163.436 167.274 222.124 172.917 225.51C169.335 204.138 168.893 191.583 168.402 169.079C162.097 165.179 153.876 149.647 137.929 118.29C157.727 125.999 167.365 132.204 170.66 161.178C173.086 155.399 174.933 150.335 175.976 145.378C177.973 135.881 177.016 126.773 171.508 113.776C170.599 111.631 169.566 109.38 168.402 107.004Z" fill="#7DAD61"/>
<path d="M143.573 38.1577C137.929 64.1162 169.531 88.946 170.66 107.004M152.602 134.091C159.813 144.912 163.388 150.581 165.017 156.664M135.672 182.622C142.504 198.868 147.106 207.475 161.631 218.739M216.934 152.149C205.647 180.365 196.909 194.194 188.718 220.996M247.407 163.436C230.477 178.108 247.407 231.154 240.635 245.826C234.964 258.215 230.835 265.735 222.577 279.685M205.647 287.585C188.599 282.888 178.229 282.122 158.245 284.199" stroke="#479241" stroke-linecap="round"/>
</svg>
